<svg xmlns="http://www.w3.org/2000/svg" width="5.2in" height="3.2in" viewBox="0 0 1560 960"><rect width="100%" height="100%" fill="white"/><text x="150" y="55" font-family="Arial" font-size="34" font-weight="bold">Selected locations</text><line x1="150" y1="785.0" x2="1500" y2="785.0" stroke="#D9D9D9" stroke-width="2"/><text x="35" y="793.0" font-family="Arial" font-size="22">0.00</text><line x1="150" y1="647.0" x2="1500" y2="647.0" stroke="#D9D9D9" stroke-width="2"/><text x="35" y="655.0" font-family="Arial" font-size="22">1.54</text><line x1="150" y1="509.0" x2="1500" y2="509.0" stroke="#D9D9D9" stroke-width="2"/><text x="35" y="517.0" font-family="Arial" font-size="22">3.08</text><line x1="150" y1="371.0" x2="1500" y2="371.0" stroke="#D9D9D9" stroke-width="2"/><text x="35" y="379.0" font-family="Arial" font-size="22">4.63</text><line x1="150" y1="233.0" x2="1500" y2="233.0" stroke="#D9D9D9" stroke-width="2"/><text x="35" y="241.0" font-family="Arial" font-size="22">6.17</text><line x1="150" y1="95.0" x2="1500" y2="95.0" stroke="#D9D9D9" stroke-width="2"/><text x="35" y="103.0" font-family="Arial" font-size="22">7.71</text><rect x="244.5" y="605.3873585580776" width="149.04000000000002" height="179.6126414419224" fill="#0072B2"/><rect x="919.5" y="294.1482213669873" width="149.03999999999996" height="490.8517786330127" fill="#0072B2"/><rect x="406.5" y="561.7661138444043" width="149.03999999999996" height="223.23388615559566" fill="#D55E00"/><rect x="1081.5" y="278.6435416112879" width="149.03999999999996" height="506.3564583887121" fill="#D55E00"/><rect x="568.5" y="557.3085742519505" width="149.03999999999996" height="227.69142574804948" fill="#009E73"/><rect x="1243.5" y="168.92857142857156" width="149.03999999999996" height="616.0714285714284" fill="#009E73"/><text x="487.5" y="840" text-anchor="middle" font-family="Arial" font-size="20">Protected land</text><text x="1162.5" y="840" text-anchor="middle" font-family="Arial" font-size="20">Urban community</text><text x="18" y="440.0" font-family="Arial" font-size="21" transform="rotate(-90 18 440.0)">Risk reduction</text><rect x="150" y="900" width="24" height="24" fill="#0072B2"/><text x="182" y="921" font-family="Arial" font-size="20">Shielded + warm LEDs</text><rect x="480" y="900" width="24" height="24" fill="#D55E00"/><text x="512" y="921" font-family="Arial" font-size="20">Adaptive dimming + curfew</text><rect x="810" y="900" width="24" height="24" fill="#009E73"/><text x="842" y="921" font-family="Arial" font-size="20">Zoned standards + enforcement</text></svg>