<svg xmlns="http://www.w3.org/2000/svg" width="5.2in" height="3.2in" viewBox="0 0 1560 960"><rect width="100%" height="100%" fill="white"/><text x="150" y="55" font-family="Arial" font-size="34" font-weight="bold">Baseline risk</text><line x1="150" y1="785.0" x2="1500" y2="785.0" stroke="#D9D9D9" stroke-width="2"/><text x="35" y="793.0" font-family="Arial" font-size="22">0.00</text><line x1="150" y1="647.0" x2="1500" y2="647.0" stroke="#D9D9D9" stroke-width="2"/><text x="35" y="655.0" font-family="Arial" font-size="22">20.00</text><line x1="150" y1="509.0" x2="1500" y2="509.0" stroke="#D9D9D9" stroke-width="2"/><text x="35" y="517.0" font-family="Arial" font-size="22">40.00</text><line x1="150" y1="371.0" x2="1500" y2="371.0" stroke="#D9D9D9" stroke-width="2"/><text x="35" y="379.0" font-family="Arial" font-size="22">60.00</text><line x1="150" y1="233.0" x2="1500" y2="233.0" stroke="#D9D9D9" stroke-width="2"/><text x="35" y="241.0" font-family="Arial" font-size="22">80.00</text><line x1="150" y1="95.0" x2="1500" y2="95.0" stroke="#D9D9D9" stroke-width="2"/><text x="35" y="103.0" font-family="Arial" font-size="22">100.00</text><polyline points="318.75,746.0141012878853 656.25,725.477374073495 993.75,682.2728392613014 1331.25,659.0573354211069" fill="none" stroke="#D55E00" stroke-width="6"/><circle cx="318.75" cy="746.0141012878853" r="10" fill="#D55E00"/><circle cx="656.25" cy="725.477374073495" r="10" fill="#D55E00"/><circle cx="993.75" cy="682.2728392613014" r="10" fill="#D55E00"/><circle cx="1331.25" cy="659.0573354211069" r="10" fill="#D55E00"/><text x="318.75" y="840" text-anchor="middle" font-family="Arial" font-size="20">Protected land</text><text x="656.25" y="840" text-anchor="middle" font-family="Arial" font-size="20">Rural community</text><text x="993.75" y="840" text-anchor="middle" font-family="Arial" font-size="20">Suburban community</text><text x="1331.25" y="840" text-anchor="middle" font-family="Arial" font-size="20">Urban community</text><text x="18" y="440.0" font-family="Arial" font-size="21" transform="rotate(-90 18 440.0)">Score</text><rect x="150" y="900" width="24" height="24" fill="#D55E00"/><text x="182" y="921" font-family="Arial" font-size="20">Risk</text></svg>