<?xml version="1.0" encoding="utf-8" standalone="no"?>
<!DOCTYPE svg PUBLIC "-//W3C//DTD SVG 1.1//EN"
  "http://www.w3.org/Graphics/SVG/1.1/DTD/svg11.dtd">
<svg xmlns:xlink="http://www.w3.org/1999/xlink" width="312.77625pt" height="246.013pt" viewBox="0 0 312.77625 246.013" xmlns="http://www.w3.org/2000/svg" version="1.1">
 <metadata>
  <rdf:RDF xmlns:dc="http://purl.org/dc/elements/1.1/" xmlns:cc="http://creativecommons.org/ns#" xmlns:rdf="http://www.w3.org/1999/02/22-rdf-syntax-ns#">
   <cc:Work>
    <dc:type rdf:resource="http://purl.org/dc/dcmitype/StillImage"/>
    <dc:format>image/svg+xml</dc:format>
    <dc:creator>
     <cc:Agent>
      <dc:title>Matplotlib v3.10.8, https://matplotlib.org/</dc:title>
     </cc:Agent>
    </dc:creator>
   </cc:Work>
  </rdf:RDF>
 </metadata>
 <defs>
  <style type="text/css">*{stroke-linejoin: round; stroke-linecap: butt}</style>
 </defs>
 <g id="figure_1">
  <g id="patch_1">
   <path d="M 0 246.013 
L 312.77625 246.013 
L 312.77625 0 
L 0 0 
z
" style="fill: #ffffff"/>
  </g>
  <g id="axes_1">
   <g id="patch_2">
    <path d="M 37.73625 212.328 
L 305.57625 212.328 
L 305.57625 7.2 
L 37.73625 7.2 
z
" style="fill: #ffffff"/>
   </g>
   <g id="PathCollection_1">
    <defs>
     <path id="mc8960ba09d" d="M 0 2.738613 
C 0.726289 2.738613 1.422928 2.450055 1.936492 1.936492 
C 2.450055 1.422928 2.738613 0.726289 2.738613 0 
C 2.738613 -0.726289 2.450055 -1.422928 1.936492 -1.936492 
C 1.422928 -2.450055 0.726289 -2.738613 0 -2.738613 
C -0.726289 -2.738613 -1.422928 -2.450055 -1.936492 -1.936492 
C -2.450055 -1.422928 -2.738613 -0.726289 -2.738613 0 
C -2.738613 0.726289 -2.450055 1.422928 -1.936492 1.936492 
C -1.422928 2.450055 -0.726289 2.738613 0 2.738613 
z
" style="stroke: #0072b2"/>
    </defs>
    <g clip-path="url(#p6abae7646e)">
     <use xlink:href="#mc8960ba09d" x="58.004603" y="167.087964" style="fill: #0072b2; stroke: #0072b2"/>
    </g>
   </g>
   <g id="PathCollection_2">
    <defs>
     <path id="mff4873188b" d="M 0 -2.738613 
L -2.738613 2.738613 
L 2.738613 2.738613 
z
" style="stroke: #d55e00"/>
    </defs>
    <g clip-path="url(#p6abae7646e)">
     <use xlink:href="#mff4873188b" x="183.352715" y="185.638399" style="fill: #d55e00; stroke: #d55e00"/>
    </g>
   </g>
   <g id="PathCollection_3">
    <g clip-path="url(#p6abae7646e)">
     <use xlink:href="#mc8960ba09d" x="127.019427" y="146.029376" style="fill: #0072b2; stroke: #0072b2"/>
    </g>
   </g>
   <g id="PathCollection_4">
    <g clip-path="url(#p6abae7646e)">
     <use xlink:href="#mc8960ba09d" x="54.874052" y="160.674583" style="fill: #0072b2; stroke: #0072b2"/>
    </g>
   </g>
   <g id="PathCollection_5">
    <g clip-path="url(#p6abae7646e)">
     <use xlink:href="#mc8960ba09d" x="49.910795" y="166.025152" style="fill: #0072b2; stroke: #0072b2"/>
    </g>
   </g>
   <g id="PathCollection_6">
    <g clip-path="url(#p6abae7646e)">
     <use xlink:href="#mc8960ba09d" x="102.177744" y="184.100266" style="fill: #0072b2; stroke: #0072b2"/>
    </g>
   </g>
   <g id="PathCollection_7">
    <defs>
     <path id="m4eb37893b8" d="M -2.738613 2.738613 
L 2.738613 2.738613 
L 2.738613 -2.738613 
L -2.738613 -2.738613 
z
" style="stroke: #0072b2"/>
    </defs>
    <g clip-path="url(#p6abae7646e)">
     <use xlink:href="#m4eb37893b8" x="127.986216" y="138.046958" style="fill: #0072b2; stroke: #0072b2"/>
    </g>
   </g>
   <g id="PathCollection_8">
    <defs>
     <path id="m847d9b08d0" d="M -2.738613 2.738613 
L 2.738613 2.738613 
L 2.738613 -2.738613 
L -2.738613 -2.738613 
z
" style="stroke: #d55e00"/>
    </defs>
    <g clip-path="url(#p6abae7646e)">
     <use xlink:href="#m847d9b08d0" x="288.284982" y="191.943516" style="fill: #d55e00; stroke: #d55e00"/>
    </g>
   </g>
   <g id="PathCollection_9">
    <g clip-path="url(#p6abae7646e)">
     <use xlink:href="#m4eb37893b8" x="110.98873" y="126.369674" style="fill: #0072b2; stroke: #0072b2"/>
    </g>
   </g>
   <g id="PathCollection_10">
    <g clip-path="url(#p6abae7646e)">
     <use xlink:href="#m4eb37893b8" x="112.197118" y="98.417251" style="fill: #0072b2; stroke: #0072b2"/>
    </g>
   </g>
   <g id="PathCollection_11">
    <g clip-path="url(#p6abae7646e)">
     <use xlink:href="#mff4873188b" x="260.930932" y="191.028485" style="fill: #d55e00; stroke: #d55e00"/>
    </g>
   </g>
   <g id="PathCollection_12">
    <g clip-path="url(#p6abae7646e)">
     <use xlink:href="#m4eb37893b8" x="104.576771" y="110.47478" style="fill: #0072b2; stroke: #0072b2"/>
    </g>
   </g>
   <g id="PathCollection_13">
    <g clip-path="url(#p6abae7646e)">
     <use xlink:href="#mc8960ba09d" x="58.342538" y="102.105781" style="fill: #0072b2; stroke: #0072b2"/>
    </g>
   </g>
   <g id="PathCollection_14">
    <g clip-path="url(#p6abae7646e)">
     <use xlink:href="#mc8960ba09d" x="104.043212" y="53.267058" style="fill: #0072b2; stroke: #0072b2"/>
    </g>
   </g>
   <g id="PathCollection_15">
    <g clip-path="url(#p6abae7646e)">
     <use xlink:href="#mc8960ba09d" x="60.652544" y="53.236205" style="fill: #0072b2; stroke: #0072b2"/>
    </g>
   </g>
   <g id="PathCollection_16">
    <g clip-path="url(#p6abae7646e)">
     <use xlink:href="#m4eb37893b8" x="84.657633" y="129.626783" style="fill: #0072b2; stroke: #0072b2"/>
    </g>
   </g>
   <g id="PathCollection_17">
    <g clip-path="url(#p6abae7646e)">
     <use xlink:href="#mff4873188b" x="252.430757" y="202.74171" style="fill: #d55e00; stroke: #d55e00"/>
    </g>
   </g>
   <g id="PathCollection_18">
    <g clip-path="url(#p6abae7646e)">
     <use xlink:href="#m847d9b08d0" x="237.544168" y="174.077706" style="fill: #d55e00; stroke: #d55e00"/>
    </g>
   </g>
   <g id="PathCollection_19">
    <g clip-path="url(#p6abae7646e)">
     <use xlink:href="#m4eb37893b8" x="171.945462" y="164.681443" style="fill: #0072b2; stroke: #0072b2"/>
    </g>
   </g>
   <g id="PathCollection_20">
    <g clip-path="url(#p6abae7646e)">
     <use xlink:href="#m4eb37893b8" x="99.405501" y="120.207918" style="fill: #0072b2; stroke: #0072b2"/>
    </g>
   </g>
   <g id="PathCollection_21">
    <defs>
     <path id="ma87b55f63d" d="M 0 2.738613 
C 0.726289 2.738613 1.422928 2.450055 1.936492 1.936492 
C 2.450055 1.422928 2.738613 0.726289 2.738613 0 
C 2.738613 -0.726289 2.450055 -1.422928 1.936492 -1.936492 
C 1.422928 -2.450055 0.726289 -2.738613 0 -2.738613 
C -0.726289 -2.738613 -1.422928 -2.450055 -1.936492 -1.936492 
C -2.450055 -1.422928 -2.738613 -0.726289 -2.738613 0 
C -2.738613 0.726289 -2.450055 1.422928 -1.936492 1.936492 
C -1.422928 2.450055 -0.726289 2.738613 0 2.738613 
z
" style="stroke: #d55e00"/>
    </defs>
    <g clip-path="url(#p6abae7646e)">
     <use xlink:href="#ma87b55f63d" x="263.575119" y="16.524" style="fill: #d55e00; stroke: #d55e00"/>
    </g>
   </g>
   <g id="PathCollection_22">
    <g clip-path="url(#p6abae7646e)">
     <use xlink:href="#m847d9b08d0" x="288.659852" y="106.171063" style="fill: #d55e00; stroke: #d55e00"/>
    </g>
   </g>
   <g id="PathCollection_23">
    <g clip-path="url(#p6abae7646e)">
     <use xlink:href="#ma87b55f63d" x="259.107289" y="62.717193" style="fill: #d55e00; stroke: #d55e00"/>
    </g>
   </g>
   <g id="PathCollection_24">
    <g clip-path="url(#p6abae7646e)">
     <use xlink:href="#m847d9b08d0" x="280.819013" y="187.577115" style="fill: #d55e00; stroke: #d55e00"/>
    </g>
   </g>
   <g id="PathCollection_25">
    <g clip-path="url(#p6abae7646e)">
     <use xlink:href="#m4eb37893b8" x="123.284431" y="129.756085" style="fill: #0072b2; stroke: #0072b2"/>
    </g>
   </g>
   <g id="PathCollection_26">
    <g clip-path="url(#p6abae7646e)">
     <use xlink:href="#mff4873188b" x="229.048436" y="146.585417" style="fill: #d55e00; stroke: #d55e00"/>
    </g>
   </g>
   <g id="PathCollection_27">
    <g clip-path="url(#p6abae7646e)">
     <use xlink:href="#ma87b55f63d" x="206.392602" y="94.431467" style="fill: #d55e00; stroke: #d55e00"/>
    </g>
   </g>
   <g id="PathCollection_28">
    <g clip-path="url(#p6abae7646e)">
     <use xlink:href="#mff4873188b" x="237.800429" y="151.448951" style="fill: #d55e00; stroke: #d55e00"/>
    </g>
   </g>
   <g id="PathCollection_29">
    <g clip-path="url(#p6abae7646e)">
     <use xlink:href="#mff4873188b" x="230.317014" y="169.962693" style="fill: #d55e00; stroke: #d55e00"/>
    </g>
   </g>
   <g id="PathCollection_30">
    <g clip-path="url(#p6abae7646e)">
     <use xlink:href="#ma87b55f63d" x="244.241184" y="112.208967" style="fill: #d55e00; stroke: #d55e00"/>
    </g>
   </g>
   <g id="PathCollection_31">
    <g clip-path="url(#p6abae7646e)">
     <use xlink:href="#ma87b55f63d" x="240.611144" y="103.332126" style="fill: #d55e00; stroke: #d55e00"/>
    </g>
   </g>
   <g id="PathCollection_32">
    <g clip-path="url(#p6abae7646e)">
     <use xlink:href="#m847d9b08d0" x="266.27865" y="129.748491" style="fill: #d55e00; stroke: #d55e00"/>
    </g>
   </g>
   <g id="PathCollection_33">
    <g clip-path="url(#p6abae7646e)">
     <use xlink:href="#ma87b55f63d" x="265.17206" y="122.907073" style="fill: #d55e00; stroke: #d55e00"/>
    </g>
   </g>
   <g id="PathCollection_34">
    <g clip-path="url(#p6abae7646e)">
     <use xlink:href="#ma87b55f63d" x="275.201413" y="36.179385" style="fill: #d55e00; stroke: #d55e00"/>
    </g>
   </g>
   <g id="PathCollection_35">
    <g clip-path="url(#p6abae7646e)">
     <use xlink:href="#m847d9b08d0" x="254.305062" y="151.863416" style="fill: #d55e00; stroke: #d55e00"/>
    </g>
   </g>
   <g id="PathCollection_36">
    <g clip-path="url(#p6abae7646e)">
     <use xlink:href="#ma87b55f63d" x="280.806475" y="82.255761" style="fill: #d55e00; stroke: #d55e00"/>
    </g>
   </g>
   <g id="PathCollection_37">
    <g clip-path="url(#p6abae7646e)">
     <use xlink:href="#m847d9b08d0" x="290.244798" y="151.204961" style="fill: #d55e00; stroke: #d55e00"/>
    </g>
   </g>
   <g id="PathCollection_38">
    <g clip-path="url(#p6abae7646e)">
     <use xlink:href="#mff4873188b" x="293.401705" y="163.919536" style="fill: #d55e00; stroke: #d55e00"/>
    </g>
   </g>
   <g id="PathCollection_39">
    <g clip-path="url(#p6abae7646e)">
     <use xlink:href="#mff4873188b" x="247.371918" y="202.070304" style="fill: #d55e00; stroke: #d55e00"/>
    </g>
   </g>
   <g id="PathCollection_40">
    <g clip-path="url(#p6abae7646e)">
     <use xlink:href="#ma87b55f63d" x="250.965306" y="17.92579" style="fill: #d55e00; stroke: #d55e00"/>
    </g>
   </g>
   <g id="PathCollection_41">
    <g clip-path="url(#p6abae7646e)">
     <use xlink:href="#mff4873188b" x="258.576207" y="203.004" style="fill: #d55e00; stroke: #d55e00"/>
    </g>
   </g>
   <g id="PathCollection_42">
    <g clip-path="url(#p6abae7646e)">
     <use xlink:href="#ma87b55f63d" x="232.076761" y="39.820453" style="fill: #d55e00; stroke: #d55e00"/>
    </g>
   </g>
   <g id="PathCollection_43">
    <g clip-path="url(#p6abae7646e)">
     <use xlink:href="#ma87b55f63d" x="257.136802" y="34.198226" style="fill: #d55e00; stroke: #d55e00"/>
    </g>
   </g>
   <g id="PathCollection_44">
    <g clip-path="url(#p6abae7646e)">
     <use xlink:href="#ma87b55f63d" x="260.813324" y="102.389177" style="fill: #d55e00; stroke: #d55e00"/>
    </g>
   </g>
   <g id="PathCollection_45">
    <g clip-path="url(#p6abae7646e)">
     <use xlink:href="#ma87b55f63d" x="257.797943" y="24.595466" style="fill: #d55e00; stroke: #d55e00"/>
    </g>
   </g>
   <g id="PathCollection_46">
    <g clip-path="url(#p6abae7646e)">
     <use xlink:href="#ma87b55f63d" x="224.958328" y="108.596209" style="fill: #d55e00; stroke: #d55e00"/>
    </g>
   </g>
   <g id="PathCollection_47">
    <g clip-path="url(#p6abae7646e)">
     <use xlink:href="#mff4873188b" x="237.503679" y="197.950192" style="fill: #d55e00; stroke: #d55e00"/>
    </g>
   </g>
   <g id="PathCollection_48">
    <g clip-path="url(#p6abae7646e)">
     <use xlink:href="#mff4873188b" x="271.891651" y="187.05468" style="fill: #d55e00; stroke: #d55e00"/>
    </g>
   </g>
   <g id="PathCollection_49">
    <g clip-path="url(#p6abae7646e)">
     <use xlink:href="#mff4873188b" x="252.768622" y="201.684901" style="fill: #d55e00; stroke: #d55e00"/>
    </g>
   </g>
   <g id="PathCollection_50">
    <g clip-path="url(#p6abae7646e)">
     <use xlink:href="#mff4873188b" x="277.016929" y="138.509944" style="fill: #d55e00; stroke: #d55e00"/>
    </g>
   </g>
   <g id="PathCollection_51">
    <g clip-path="url(#p6abae7646e)">
     <use xlink:href="#ma87b55f63d" x="251.312846" y="31.459881" style="fill: #d55e00; stroke: #d55e00"/>
    </g>
   </g>
   <g id="PathCollection_52">
    <g clip-path="url(#p6abae7646e)">
     <use xlink:href="#mff4873188b" x="263.287325" y="190.193211" style="fill: #d55e00; stroke: #d55e00"/>
    </g>
   </g>
   <g id="PathCollection_53">
    <g clip-path="url(#p6abae7646e)">
     <use xlink:href="#ma87b55f63d" x="271.72758" y="60.967064" style="fill: #d55e00; stroke: #d55e00"/>
    </g>
   </g>
   <g id="PathCollection_54">
    <g clip-path="url(#p6abae7646e)">
     <use xlink:href="#m847d9b08d0" x="285.94439" y="162.107253" style="fill: #d55e00; stroke: #d55e00"/>
    </g>
   </g>
   <g id="PathCollection_55">
    <g clip-path="url(#p6abae7646e)">
     <use xlink:href="#m847d9b08d0" x="285.387005" y="103.505113" style="fill: #d55e00; stroke: #d55e00"/>
    </g>
   </g>
   <g id="PathCollection_56">
    <g clip-path="url(#p6abae7646e)">
     <use xlink:href="#mff4873188b" x="244.341599" y="199.678023" style="fill: #d55e00; stroke: #d55e00"/>
    </g>
   </g>
   <g id="matplotlib.axis_1">
    <g id="xtick_1">
     <g id="line2d_1">
      <defs>
       <path id="m2d0f0195e2" d="M 0 0 
L 0 3.5 
" style="stroke: #000000; stroke-width: 0.8"/>
      </defs>
      <g>
       <use xlink:href="#m2d0f0195e2" x="73.944778" y="212.328" style="stroke: #000000; stroke-width: 0.8"/>
      </g>
     </g>
     <g id="text_1">
      <!-- −6 -->
      <g transform="translate(68.047903 225.40675) scale(0.08 -0.08)">
       <defs>
        <path id="DejaVuSans-2212" d="M 678 2272 
L 4684 2272 
L 4684 1741 
L 678 1741 
L 678 2272 
z
" transform="scale(0.015625)"/>
        <path id="DejaVuSans-36" d="M 2113 2584 
Q 1688 2584 1439 2293 
Q 1191 2003 1191 1497 
Q 1191 994 1439 701 
Q 1688 409 2113 409 
Q 2538 409 2786 701 
Q 3034 994 3034 1497 
Q 3034 2003 2786 2293 
Q 2538 2584 2113 2584 
z
M 3366 4563 
L 3366 3988 
Q 3128 4100 2886 4159 
Q 2644 4219 2406 4219 
Q 1781 4219 1451 3797 
Q 1122 3375 1075 2522 
Q 1259 2794 1537 2939 
Q 1816 3084 2150 3084 
Q 2853 3084 3261 2657 
Q 3669 2231 3669 1497 
Q 3669 778 3244 343 
Q 2819 -91 2113 -91 
Q 1303 -91 875 529 
Q 447 1150 447 2328 
Q 447 3434 972 4092 
Q 1497 4750 2381 4750 
Q 2619 4750 2861 4703 
Q 3103 4656 3366 4563 
z
" transform="scale(0.015625)"/>
       </defs>
       <use xlink:href="#DejaVuSans-2212"/>
       <use xlink:href="#DejaVuSans-36" transform="translate(83.789062 0)"/>
      </g>
     </g>
    </g>
    <g id="xtick_2">
     <g id="line2d_2">
      <g>
       <use xlink:href="#m2d0f0195e2" x="119.590988" y="212.328" style="stroke: #000000; stroke-width: 0.8"/>
      </g>
     </g>
     <g id="text_2">
      <!-- −4 -->
      <g transform="translate(113.694113 225.40675) scale(0.08 -0.08)">
       <defs>
        <path id="DejaVuSans-34" d="M 2419 4116 
L 825 1625 
L 2419 1625 
L 2419 4116 
z
M 2253 4666 
L 3047 4666 
L 3047 1625 
L 3713 1625 
L 3713 1100 
L 3047 1100 
L 3047 0 
L 2419 0 
L 2419 1100 
L 313 1100 
L 313 1709 
L 2253 4666 
z
" transform="scale(0.015625)"/>
       </defs>
       <use xlink:href="#DejaVuSans-2212"/>
       <use xlink:href="#DejaVuSans-34" transform="translate(83.789062 0)"/>
      </g>
     </g>
    </g>
    <g id="xtick_3">
     <g id="line2d_3">
      <g>
       <use xlink:href="#m2d0f0195e2" x="165.237197" y="212.328" style="stroke: #000000; stroke-width: 0.8"/>
      </g>
     </g>
     <g id="text_3">
      <!-- −2 -->
      <g transform="translate(159.340322 225.40675) scale(0.08 -0.08)">
       <defs>
        <path id="DejaVuSans-32" d="M 1228 531 
L 3431 531 
L 3431 0 
L 469 0 
L 469 531 
Q 828 903 1448 1529 
Q 2069 2156 2228 2338 
Q 2531 2678 2651 2914 
Q 2772 3150 2772 3378 
Q 2772 3750 2511 3984 
Q 2250 4219 1831 4219 
Q 1534 4219 1204 4116 
Q 875 4013 500 3803 
L 500 4441 
Q 881 4594 1212 4672 
Q 1544 4750 1819 4750 
Q 2544 4750 2975 4387 
Q 3406 4025 3406 3419 
Q 3406 3131 3298 2873 
Q 3191 2616 2906 2266 
Q 2828 2175 2409 1742 
Q 1991 1309 1228 531 
z
" transform="scale(0.015625)"/>
       </defs>
       <use xlink:href="#DejaVuSans-2212"/>
       <use xlink:href="#DejaVuSans-32" transform="translate(83.789062 0)"/>
      </g>
     </g>
    </g>
    <g id="xtick_4">
     <g id="line2d_4">
      <g>
       <use xlink:href="#m2d0f0195e2" x="210.883407" y="212.328" style="stroke: #000000; stroke-width: 0.8"/>
      </g>
     </g>
     <g id="text_4">
      <!-- 0 -->
      <g transform="translate(208.338407 225.40675) scale(0.08 -0.08)">
       <defs>
        <path id="DejaVuSans-30" d="M 2034 4250 
Q 1547 4250 1301 3770 
Q 1056 3291 1056 2328 
Q 1056 1369 1301 889 
Q 1547 409 2034 409 
Q 2525 409 2770 889 
Q 3016 1369 3016 2328 
Q 3016 3291 2770 3770 
Q 2525 4250 2034 4250 
z
M 2034 4750 
Q 2819 4750 3233 4129 
Q 3647 3509 3647 2328 
Q 3647 1150 3233 529 
Q 2819 -91 2034 -91 
Q 1250 -91 836 529 
Q 422 1150 422 2328 
Q 422 3509 836 4129 
Q 1250 4750 2034 4750 
z
" transform="scale(0.015625)"/>
       </defs>
       <use xlink:href="#DejaVuSans-30"/>
      </g>
     </g>
    </g>
    <g id="xtick_5">
     <g id="line2d_5">
      <g>
       <use xlink:href="#m2d0f0195e2" x="256.529617" y="212.328" style="stroke: #000000; stroke-width: 0.8"/>
      </g>
     </g>
     <g id="text_5">
      <!-- 2 -->
      <g transform="translate(253.984617 225.40675) scale(0.08 -0.08)">
       <use xlink:href="#DejaVuSans-32"/>
      </g>
     </g>
    </g>
    <g id="xtick_6">
     <g id="line2d_6">
      <g>
       <use xlink:href="#m2d0f0195e2" x="302.175826" y="212.328" style="stroke: #000000; stroke-width: 0.8"/>
      </g>
     </g>
     <g id="text_6">
      <!-- 4 -->
      <g transform="translate(299.630826 225.40675) scale(0.08 -0.08)">
       <use xlink:href="#DejaVuSans-34"/>
      </g>
     </g>
    </g>
    <g id="text_7">
     <!-- CLR-PC1 -->
     <g transform="translate(154.821875 237.14925) scale(0.08 -0.08)">
      <defs>
       <path id="DejaVuSans-43" d="M 4122 4306 
L 4122 3641 
Q 3803 3938 3442 4084 
Q 3081 4231 2675 4231 
Q 1875 4231 1450 3742 
Q 1025 3253 1025 2328 
Q 1025 1406 1450 917 
Q 1875 428 2675 428 
Q 3081 428 3442 575 
Q 3803 722 4122 1019 
L 4122 359 
Q 3791 134 3420 21 
Q 3050 -91 2638 -91 
Q 1578 -91 968 557 
Q 359 1206 359 2328 
Q 359 3453 968 4101 
Q 1578 4750 2638 4750 
Q 3056 4750 3426 4639 
Q 3797 4528 4122 4306 
z
" transform="scale(0.015625)"/>
       <path id="DejaVuSans-4c" d="M 628 4666 
L 1259 4666 
L 1259 531 
L 3531 531 
L 3531 0 
L 628 0 
L 628 4666 
z
" transform="scale(0.015625)"/>
       <path id="DejaVuSans-52" d="M 2841 2188 
Q 3044 2119 3236 1894 
Q 3428 1669 3622 1275 
L 4263 0 
L 3584 0 
L 2988 1197 
Q 2756 1666 2539 1819 
Q 2322 1972 1947 1972 
L 1259 1972 
L 1259 0 
L 628 0 
L 628 4666 
L 2053 4666 
Q 2853 4666 3247 4331 
Q 3641 3997 3641 3322 
Q 3641 2881 3436 2590 
Q 3231 2300 2841 2188 
z
M 1259 4147 
L 1259 2491 
L 2053 2491 
Q 2509 2491 2742 2702 
Q 2975 2913 2975 3322 
Q 2975 3731 2742 3939 
Q 2509 4147 2053 4147 
L 1259 4147 
z
" transform="scale(0.015625)"/>
       <path id="DejaVuSans-2d" d="M 313 2009 
L 1997 2009 
L 1997 1497 
L 313 1497 
L 313 2009 
z
" transform="scale(0.015625)"/>
       <path id="DejaVuSans-50" d="M 1259 4147 
L 1259 2394 
L 2053 2394 
Q 2494 2394 2734 2622 
Q 2975 2850 2975 3272 
Q 2975 3691 2734 3919 
Q 2494 4147 2053 4147 
L 1259 4147 
z
M 628 4666 
L 2053 4666 
Q 2838 4666 3239 4311 
Q 3641 3956 3641 3272 
Q 3641 2581 3239 2228 
Q 2838 1875 2053 1875 
L 1259 1875 
L 1259 0 
L 628 0 
L 628 4666 
z
" transform="scale(0.015625)"/>
       <path id="DejaVuSans-31" d="M 794 531 
L 1825 531 
L 1825 4091 
L 703 3866 
L 703 4441 
L 1819 4666 
L 2450 4666 
L 2450 531 
L 3481 531 
L 3481 0 
L 794 0 
L 794 531 
z
" transform="scale(0.015625)"/>
      </defs>
      <use xlink:href="#DejaVuSans-43"/>
      <use xlink:href="#DejaVuSans-4c" transform="translate(69.824219 0)"/>
      <use xlink:href="#DejaVuSans-52" transform="translate(125.537109 0)"/>
      <use xlink:href="#DejaVuSans-2d" transform="translate(191.019531 0)"/>
      <use xlink:href="#DejaVuSans-50" transform="translate(227.103516 0)"/>
      <use xlink:href="#DejaVuSans-43" transform="translate(287.40625 0)"/>
      <use xlink:href="#DejaVuSans-31" transform="translate(357.230469 0)"/>
     </g>
    </g>
   </g>
   <g id="matplotlib.axis_2">
    <g id="ytick_1">
     <g id="line2d_7">
      <defs>
       <path id="meb76414158" d="M 0 0 
L -3.5 0 
" style="stroke: #000000; stroke-width: 0.8"/>
      </defs>
      <g>
       <use xlink:href="#meb76414158" x="37.73625" y="211.563576" style="stroke: #000000; stroke-width: 0.8"/>
      </g>
     </g>
     <g id="text_8">
      <!-- −3 -->
      <g transform="translate(18.9425 214.602951) scale(0.08 -0.08)">
       <defs>
        <path id="DejaVuSans-33" d="M 2597 2516 
Q 3050 2419 3304 2112 
Q 3559 1806 3559 1356 
Q 3559 666 3084 287 
Q 2609 -91 1734 -91 
Q 1441 -91 1130 -33 
Q 819 25 488 141 
L 488 750 
Q 750 597 1062 519 
Q 1375 441 1716 441 
Q 2309 441 2620 675 
Q 2931 909 2931 1356 
Q 2931 1769 2642 2001 
Q 2353 2234 1838 2234 
L 1294 2234 
L 1294 2753 
L 1863 2753 
Q 2328 2753 2575 2939 
Q 2822 3125 2822 3475 
Q 2822 3834 2567 4026 
Q 2313 4219 1838 4219 
Q 1578 4219 1281 4162 
Q 984 4106 628 3988 
L 628 4550 
Q 988 4650 1302 4700 
Q 1616 4750 1894 4750 
Q 2613 4750 3031 4423 
Q 3450 4097 3450 3541 
Q 3450 3153 3228 2886 
Q 3006 2619 2597 2516 
z
" transform="scale(0.015625)"/>
       </defs>
       <use xlink:href="#DejaVuSans-2212"/>
       <use xlink:href="#DejaVuSans-33" transform="translate(83.789062 0)"/>
      </g>
     </g>
    </g>
    <g id="ytick_2">
     <g id="line2d_8">
      <g>
       <use xlink:href="#meb76414158" x="37.73625" y="183.841697" style="stroke: #000000; stroke-width: 0.8"/>
      </g>
     </g>
     <g id="text_9">
      <!-- −2 -->
      <g transform="translate(18.9425 186.881072) scale(0.08 -0.08)">
       <use xlink:href="#DejaVuSans-2212"/>
       <use xlink:href="#DejaVuSans-32" transform="translate(83.789062 0)"/>
      </g>
     </g>
    </g>
    <g id="ytick_3">
     <g id="line2d_9">
      <g>
       <use xlink:href="#meb76414158" x="37.73625" y="156.119818" style="stroke: #000000; stroke-width: 0.8"/>
      </g>
     </g>
     <g id="text_10">
      <!-- −1 -->
      <g transform="translate(18.9425 159.159193) scale(0.08 -0.08)">
       <use xlink:href="#DejaVuSans-2212"/>
       <use xlink:href="#DejaVuSans-31" transform="translate(83.789062 0)"/>
      </g>
     </g>
    </g>
    <g id="ytick_4">
     <g id="line2d_10">
      <g>
       <use xlink:href="#meb76414158" x="37.73625" y="128.397939" style="stroke: #000000; stroke-width: 0.8"/>
      </g>
     </g>
     <g id="text_11">
      <!-- 0 -->
      <g transform="translate(25.64625 131.437314) scale(0.08 -0.08)">
       <use xlink:href="#DejaVuSans-30"/>
      </g>
     </g>
    </g>
    <g id="ytick_5">
     <g id="line2d_11">
      <g>
       <use xlink:href="#meb76414158" x="37.73625" y="100.67606" style="stroke: #000000; stroke-width: 0.8"/>
      </g>
     </g>
     <g id="text_12">
      <!-- 1 -->
      <g transform="translate(25.64625 103.715435) scale(0.08 -0.08)">
       <use xlink:href="#DejaVuSans-31"/>
      </g>
     </g>
    </g>
    <g id="ytick_6">
     <g id="line2d_12">
      <g>
       <use xlink:href="#meb76414158" x="37.73625" y="72.954182" style="stroke: #000000; stroke-width: 0.8"/>
      </g>
     </g>
     <g id="text_13">
      <!-- 2 -->
      <g transform="translate(25.64625 75.993557) scale(0.08 -0.08)">
       <use xlink:href="#DejaVuSans-32"/>
      </g>
     </g>
    </g>
    <g id="ytick_7">
     <g id="line2d_13">
      <g>
       <use xlink:href="#meb76414158" x="37.73625" y="45.232303" style="stroke: #000000; stroke-width: 0.8"/>
      </g>
     </g>
     <g id="text_14">
      <!-- 3 -->
      <g transform="translate(25.64625 48.271678) scale(0.08 -0.08)">
       <use xlink:href="#DejaVuSans-33"/>
      </g>
     </g>
    </g>
    <g id="ytick_8">
     <g id="line2d_14">
      <g>
       <use xlink:href="#meb76414158" x="37.73625" y="17.510424" style="stroke: #000000; stroke-width: 0.8"/>
      </g>
     </g>
     <g id="text_15">
      <!-- 4 -->
      <g transform="translate(25.64625 20.549799) scale(0.08 -0.08)">
       <use xlink:href="#DejaVuSans-34"/>
      </g>
     </g>
    </g>
    <g id="text_16">
     <!-- CLR-PC2 -->
     <g transform="translate(13.27875 126.598375) rotate(-90) scale(0.08 -0.08)">
      <use xlink:href="#DejaVuSans-43"/>
      <use xlink:href="#DejaVuSans-4c" transform="translate(69.824219 0)"/>
      <use xlink:href="#DejaVuSans-52" transform="translate(125.537109 0)"/>
      <use xlink:href="#DejaVuSans-2d" transform="translate(191.019531 0)"/>
      <use xlink:href="#DejaVuSans-50" transform="translate(227.103516 0)"/>
      <use xlink:href="#DejaVuSans-43" transform="translate(287.40625 0)"/>
      <use xlink:href="#DejaVuSans-32" transform="translate(357.230469 0)"/>
     </g>
    </g>
   </g>
   <g id="patch_3">
    <path d="M 37.73625 212.328 
L 37.73625 7.2 
" style="fill: none; stroke: #000000; stroke-width: 0.8; stroke-linejoin: miter; stroke-linecap: square"/>
   </g>
   <g id="patch_4">
    <path d="M 37.73625 212.328 
L 305.57625 212.328 
" style="fill: none; stroke: #000000; stroke-width: 0.8; stroke-linejoin: miter; stroke-linecap: square"/>
   </g>
  </g>
 </g>
 <defs>
  <clipPath id="p6abae7646e">
   <rect x="37.73625" y="7.2" width="267.84" height="205.128"/>
  </clipPath>
 </defs>
</svg>
