<svg xmlns="http://www.w3.org/2000/svg" width="900" height="560" viewBox="0 0 900 560">
<rect width="100%" height="100%" fill="white"/>
<text x="450.0" y="32" text-anchor="middle" font-family="Arial" font-size="21">Richness response: Mean biomass, last 30 years</text>
<line x1="90" y1="485" x2="870" y2="485" stroke="#222"/>
<line x1="90" y1="65" x2="90" y2="485" stroke="#222"/>
<line x1="90" y1="485.00" x2="870" y2="485.00" stroke="#ddd"/>
<text x="81" y="490.00" text-anchor="end" font-family="Arial" font-size="13">44.7</text>
<line x1="90" y1="401.00" x2="870" y2="401.00" stroke="#ddd"/>
<text x="81" y="406.00" text-anchor="end" font-family="Arial" font-size="13">55.7</text>
<line x1="90" y1="317.00" x2="870" y2="317.00" stroke="#ddd"/>
<text x="81" y="322.00" text-anchor="end" font-family="Arial" font-size="13">66.6</text>
<line x1="90" y1="233.00" x2="870" y2="233.00" stroke="#ddd"/>
<text x="81" y="238.00" text-anchor="end" font-family="Arial" font-size="13">77.5</text>
<line x1="90" y1="149.00" x2="870" y2="149.00" stroke="#ddd"/>
<text x="81" y="154.00" text-anchor="end" font-family="Arial" font-size="13">88.5</text>
<line x1="90" y1="65.00" x2="870" y2="65.00" stroke="#ddd"/>
<text x="81" y="70.00" text-anchor="end" font-family="Arial" font-size="13">99.4</text>
<polyline points="90.00,253.82 201.43,158.82 312.86,120.28 424.29,99.25 535.71,85.98 647.14,76.83 758.57,70.13 870.00,65.00" fill="none" stroke="#0072B2" stroke-width="2.5"/>
<circle cx="90.00" cy="253.82" r="3" fill="#0072B2"/>
<circle cx="201.43" cy="158.82" r="3" fill="#0072B2"/>
<circle cx="312.86" cy="120.28" r="3" fill="#0072B2"/>
<circle cx="424.29" cy="99.25" r="3" fill="#0072B2"/>
<circle cx="535.71" cy="85.98" r="3" fill="#0072B2"/>
<circle cx="647.14" cy="76.83" r="3" fill="#0072B2"/>
<circle cx="758.57" cy="70.13" r="3" fill="#0072B2"/>
<circle cx="870.00" cy="65.00" r="3" fill="#0072B2"/>
<line x1="670" y1="53" x2="700" y2="53" stroke="#0072B2" stroke-width="3"/>
<text x="710" y="58" font-family="Arial" font-size="13">low_drought</text>
<polyline points="90.00,266.11 201.43,171.54 312.86,133.60 424.29,112.85 535.71,99.72 647.14,90.62 758.57,83.91 870.00,78.73" fill="none" stroke="#D55E00" stroke-width="2.5"/>
<circle cx="90.00" cy="266.11" r="3" fill="#D55E00"/>
<circle cx="201.43" cy="171.54" r="3" fill="#D55E00"/>
<circle cx="312.86" cy="133.60" r="3" fill="#D55E00"/>
<circle cx="424.29" cy="112.85" r="3" fill="#D55E00"/>
<circle cx="535.71" cy="99.72" r="3" fill="#D55E00"/>
<circle cx="647.14" cy="90.62" r="3" fill="#D55E00"/>
<circle cx="758.57" cy="83.91" r="3" fill="#D55E00"/>
<circle cx="870.00" cy="78.73" r="3" fill="#D55E00"/>
<line x1="670" y1="75" x2="700" y2="75" stroke="#D55E00" stroke-width="3"/>
<text x="710" y="80" font-family="Arial" font-size="13">reference</text>
<polyline points="90.00,279.53 201.43,185.34 312.86,148.50 424.29,128.27 535.71,115.30 647.14,106.16 758.57,99.29 870.00,93.89" fill="none" stroke="#009E73" stroke-width="2.5"/>
<circle cx="90.00" cy="279.53" r="3" fill="#009E73"/>
<circle cx="201.43" cy="185.34" r="3" fill="#009E73"/>
<circle cx="312.86" cy="148.50" r="3" fill="#009E73"/>
<circle cx="424.29" cy="128.27" r="3" fill="#009E73"/>
<circle cx="535.71" cy="115.30" r="3" fill="#009E73"/>
<circle cx="647.14" cy="106.16" r="3" fill="#009E73"/>
<circle cx="758.57" cy="99.29" r="3" fill="#009E73"/>
<circle cx="870.00" cy="93.89" r="3" fill="#009E73"/>
<line x1="670" y1="97" x2="700" y2="97" stroke="#009E73" stroke-width="3"/>
<text x="710" y="102" font-family="Arial" font-size="13">future_drought</text>
<polyline points="90.00,485.00 201.43,423.09 312.86,400.56 424.29,387.17 535.71,378.34 647.14,371.96 758.57,367.08 870.00,363.18" fill="none" stroke="#CC79A7" stroke-width="2.5"/>
<circle cx="90.00" cy="485.00" r="3" fill="#CC79A7"/>
<circle cx="201.43" cy="423.09" r="3" fill="#CC79A7"/>
<circle cx="312.86" cy="400.56" r="3" fill="#CC79A7"/>
<circle cx="424.29" cy="387.17" r="3" fill="#CC79A7"/>
<circle cx="535.71" cy="378.34" r="3" fill="#CC79A7"/>
<circle cx="647.14" cy="371.96" r="3" fill="#CC79A7"/>
<circle cx="758.57" cy="367.08" r="3" fill="#CC79A7"/>
<circle cx="870.00" cy="363.18" r="3" fill="#CC79A7"/>
<line x1="670" y1="119" x2="700" y2="119" stroke="#CC79A7" stroke-width="3"/>
<text x="710" y="124" font-family="Arial" font-size="13">future_plus_stress</text>
<text x="450.0" y="538" text-anchor="middle" font-family="Arial" font-size="15">Initial species richness</text>
<text x="22" y="280.0" transform="rotate(-90 22 280.0)" text-anchor="middle" font-family="Arial" font-size="15">Mean biomass, last 30 years</text>
</svg>