<svg xmlns="http://www.w3.org/2000/svg" width="720" height="420"><rect width="100%" height="100%" fill="white"/><text x="55" y="28" font-size="16">Q1 composition delta</text><rect x="61.5" y="45.0" width="30.5" height="330.0" fill="#225ea8"/><text x="76.8" y="395" text-anchor="middle" font-size="10">二氧化硅(SiO2)</text><text x="76.8" y="41.0" text-anchor="middle" font-size="10">22.43</text><rect x="105.1" y="363.2" width="30.5" height="11.8" fill="#225ea8"/><text x="120.4" y="395" text-anchor="middle" font-size="10">氧化钠(Na2O)</text><text x="120.4" y="359.2" text-anchor="middle" font-size="10">0.80</text><rect x="148.7" y="374.2" width="30.5" height="0.8" fill="#225ea8"/><text x="163.9" y="395" text-anchor="middle" font-size="10">氧化钾(K2O)</text><text x="163.9" y="370.2" text-anchor="middle" font-size="10">0.05</text><rect x="192.2" y="354.8" width="30.5" height="20.2" fill="#225ea8"/><text x="207.5" y="395" text-anchor="middle" font-size="10">氧化钙(CaO)</text><text x="207.5" y="350.8" text-anchor="middle" font-size="10">1.37</text><rect x="235.8" y="373.4" width="30.5" height="1.6" fill="#225ea8"/><text x="251.1" y="395" text-anchor="middle" font-size="10">氧化镁(MgO)</text><text x="251.1" y="369.4" text-anchor="middle" font-size="10">0.11</text><rect x="279.4" y="362.9" width="30.5" height="12.1" fill="#225ea8"/><text x="294.6" y="395" text-anchor="middle" font-size="10">氧化铝(Al2O3)</text><text x="294.6" y="358.9" text-anchor="middle" font-size="10">0.82</text><rect x="323.0" y="362.3" width="30.5" height="12.7" fill="#225ea8"/><text x="338.2" y="395" text-anchor="middle" font-size="10">氧化铁(Fe2O3)</text><text x="338.2" y="358.3" text-anchor="middle" font-size="10">0.86</text><rect x="366.5" y="371.9" width="30.5" height="3.1" fill="#225ea8"/><text x="381.8" y="395" text-anchor="middle" font-size="10">氧化铜(CuO)</text><text x="381.8" y="367.9" text-anchor="middle" font-size="10">0.21</text><rect x="410.1" y="148.2" width="30.5" height="226.8" fill="#225ea8"/><text x="425.4" y="395" text-anchor="middle" font-size="10">氧化铅(PbO)</text><text x="425.4" y="144.2" text-anchor="middle" font-size="10">15.42</text><rect x="453.7" y="353.0" width="30.5" height="22.0" fill="#225ea8"/><text x="468.9" y="395" text-anchor="middle" font-size="10">氧化钡(BaO)</text><text x="468.9" y="349.0" text-anchor="middle" font-size="10">1.49</text><rect x="497.2" y="322.4" width="30.5" height="52.6" fill="#225ea8"/><text x="512.5" y="395" text-anchor="middle" font-size="10">五氧化二磷(P2O5)</text><text x="512.5" y="318.4" text-anchor="middle" font-size="10">3.57</text><rect x="540.8" y="373.5" width="30.5" height="1.5" fill="#225ea8"/><text x="556.1" y="395" text-anchor="middle" font-size="10">氧化锶(SrO)</text><text x="556.1" y="369.5" text-anchor="middle" font-size="10">0.10</text><rect x="584.4" y="nan" width="30.5" height="nan" fill="#225ea8"/><text x="599.6" y="395" text-anchor="middle" font-size="10">氧化锡(SnO2)</text><text x="599.6" y="nan" text-anchor="middle" font-size="10">nan</text><rect x="628.0" y="298.2" width="30.5" height="76.8" fill="#225ea8"/><text x="643.2" y="395" text-anchor="middle" font-size="10">二氧化硫(SO2)</text><text x="643.2" y="294.2" text-anchor="middle" font-size="10">5.22</text></svg>